<svg fill="#000000" height="800px" width="800px" version="1.1" id="Layer_1" xmlns="http://www.w3.org/2000/svg" xmlns:xlink="http://www.w3.org/1999/xlink" 
	 viewBox="0 0 512 512" xml:space="preserve">
<g>
	<g>
		<path d="M422.957,133.565H372.87V116.87C372.87,52.428,320.442,0,256,0S139.13,52.428,139.13,116.87v16.696H89.044
			c-9.22,0-16.696,7.475-16.696,16.696v311.652c0,27.618,22.469,50.087,50.087,50.087h267.13c27.618,0,50.087-22.469,50.087-50.087
			V150.261C439.652,141.04,432.177,133.565,422.957,133.565z M172.522,116.87c0-46.03,37.448-83.478,83.478-83.478
			s83.478,37.448,83.478,83.478v16.696H172.522V116.87z M406.261,461.913c0,9.206-7.49,16.696-16.696,16.696h-267.13
			c-9.206,0-16.696-7.49-16.696-16.696V350.609h33.391V384c0,9.22,7.475,16.696,16.696,16.696
			c43.538,0,80.076-12.261,100.174-31.382c20.098,19.121,56.636,31.382,100.174,31.382c9.22,0,16.696-7.475,16.696-16.696v-33.391
			h33.391V461.913z M172.522,366.571v-65.316c41.256,3.698,66.783,20.596,66.783,32.658
			C239.304,345.975,213.778,362.873,172.522,366.571z M272.696,333.913c0-12.062,25.526-28.96,66.783-32.658v65.316
			C298.222,362.873,272.696,345.975,272.696,333.913z M406.261,317.217H372.87v-33.391c0-9.22-7.475-16.696-16.696-16.696
			c-43.538,0-80.076,12.261-100.174,31.382c-20.098-19.121-56.636-31.382-100.174-31.382c-9.22,0-16.696,7.475-16.696,16.696v33.391
			h-33.391V166.957h33.391v16.696c0,9.22,7.475,16.696,16.696,16.696s16.696-7.475,16.696-16.696v-16.696h166.957v16.696
			c0,9.22,7.475,16.696,16.696,16.696c9.22,0,16.696-7.475,16.696-16.696v-16.696h33.391V317.217z"/>
	</g>
</g>
</svg>